HIERARCHY
ROOT Hips
{
	OFFSET 0.00000 0.00000 0.00000
	CHANNELS 6 Xposition Yposition Zposition Zrotation Yrotation Xrotation 
	JOINT RightUpLegDummy
	{
		OFFSET 0 0 0
		CHANNELS 3 Zrotation Yrotation Xrotation
		JOINT RightUpLeg
		{
			OFFSET -3.52197 -3.41223 0.04002
			CHANNELS 3 Zrotation Yrotation Xrotation
			JOINT RightLeg
			{
				OFFSET 0.00006 -17.42390 1.60435
				CHANNELS 3 Zrotation Yrotation Xrotation
				JOINT RightFoot
				{
					OFFSET 0.06153 -16.50078 -1.63901
					CHANNELS 3 Zrotation Yrotation Xrotation
					JOINT RightToes
					{
						OFFSET 0.00298 -1.73825 3.34613
						CHANNELS 3 Zrotation Yrotation Xrotation
						End Site
						{
							OFFSET 0.00480 -0.05416 3.85043
						}
					}
				}
			}
		}
	}
	JOINT SpineDummy
	{
		OFFSET 0 0 0
		CHANNELS 3 Zrotation Yrotation Xrotation
		JOINT Spine
		{
			OFFSET 0.00000 4.68130 0.00000
			CHANNELS 3 Zrotation Yrotation Xrotation
			JOINT Spine1
			{
				OFFSET -0.00000 10.10138 0.05002
				CHANNELS 3 Zrotation Yrotation Xrotation
				JOINT HEadDummy
				{
					OFFSET 0 0 0
					CHANNELS 3 Zrotation Yrotation Xrotation
					JOINT Head
					{
						OFFSET -0.00000 3.43865 0.00438
						CHANNELS 3 Zrotation Yrotation Xrotation
						End Site
						{
							OFFSET -0.11417 5.02924 0.98962
						}
					}
				}
				JOINT LeftShoulder1Dummy
				{
					OFFSET 0 0 0
					CHANNELS 3 Zrotation Yrotation Xrotation
					JOINT LeftShoulder1
					{
						OFFSET 3.53937 -0.14262 -0.08662
						CHANNELS 3 Zrotation Yrotation Xrotation
						JOINT LeftArm
						{
							OFFSET 4.04833 -0.00133 0.12681
							CHANNELS 3 Zrotation Yrotation Xrotation
							JOINT LeftForeArm
							{
								OFFSET 10.33880 -0.01036 -0.55515
								CHANNELS 3 Zrotation Yrotation Xrotation
								JOINT LeftHand
								{
									OFFSET 8.69677 0.07543 0.40060
									CHANNELS 3 Zrotation Yrotation Xrotation
									End Site
									{
										OFFSET 5.28377 -0.21905 0.59205
									}
								}
							}
						}
					}
				}
				JOINT RightShoulderDummy
				{
					OFFSET 0 0 0
					CHANNELS 3 Zrotation Yrotation Xrotation
					JOINT RightShoulder
					{
						OFFSET -3.53937 -0.14262 -0.08660
						CHANNELS 3 Zrotation Yrotation Xrotation
						JOINT RightArm
						{
							OFFSET -4.04833 -0.00133 0.12683
							CHANNELS 3 Zrotation Yrotation Xrotation
							JOINT RightForeArm
							{
								OFFSET -10.37987 -0.01039 -0.55511
								CHANNELS 3 Zrotation Yrotation Xrotation
								JOINT RightHand
								{
									OFFSET -8.67398 0.07538 0.40058
									CHANNELS 3 Zrotation Yrotation Xrotation
									End Site
									{
										OFFSET -5.24810 -0.21916 0.59204
									}
								}
							}
						}
					}
				}
			}
		}
	}
	JOINT LeftUpLegDummy
	{
		OFFSET 0 0 0
		CHANNELS 3 Zrotation Yrotation Xrotation
		JOINT LeftUpLeg
		{
			OFFSET 3.52197 -3.41223 0.04002
			CHANNELS 3 Zrotation Yrotation Xrotation
			JOINT LeftLeg
			{
				OFFSET -0.00012 -17.42399 1.60337
				CHANNELS 3 Zrotation Yrotation Xrotation
				JOINT LeftFoot
				{
					OFFSET -0.09972 -16.50070 -1.63802
					CHANNELS 3 Zrotation Yrotation Xrotation
					JOINT LeftToes
					{
						OFFSET -0.01575 -1.73823 3.34611
						CHANNELS 3 Zrotation Yrotation Xrotation
						End Site
						{
							OFFSET 0.03150 -0.01868 3.85031
						}
					}
				}
			}
		}
	}
}
MOTION
Frames: 11
Frame Time: 0.033333
-12.8312 39.0533 32.0090 179.8020 4.4396 173.1530 0.0000 0.0000 0.0000 2.5891 2.7740 7.7806 -1.2804 -1.4843 16.8252 -5.8660 -0.3280 -16.5476 0.0000 -0.0000 0.0000 0.0000 0.0000 0.0000 -2.7564 -0.1184 9.1258 4.3299 -1.0003 -0.7006 -0.0000 0.0000 -0.0000 12.8513 -15.0677 5.3780 -0.0000 0.0000 -0.0000 -33.7778 -2.7674 2.4962 -42.4488 -13.6879 -20.3289 -9.2353 5.1214 48.8084 13.5745 -3.7024 -1.0343 -0.0000 0.0000 -0.0000 34.5277 5.1151 3.4944 39.6012 7.6690 -9.8507 10.3084 9.8853 15.4294 -10.7504 1.8912 -0.6585 0.0000 0.0000 0.0000 6.0266 2.4448 -11.8330 -1.3894 -13.8809 5.8694 -3.8390 0.2936 -3.3105 0.0000 0.0000 -0.0000
-13.2392 38.9160 31.0020 179.1070 6.3503 172.6740 0.0000 0.0000 0.0000 1.3293 5.2913 8.6845 -1.1900 -2.2046 19.0104 -4.7975 -0.3367 -17.8347 0.0000 -0.0000 0.0000 0.0000 0.0000 0.0000 -3.3171 -0.0705 9.5264 4.1949 -0.9410 -0.6875 -0.0000 0.0000 -0.0000 12.8493 -15.9386 6.0236 -0.0000 0.0000 -0.0000 -33.8407 -2.8014 2.5137 -42.0791 -13.7435 -21.9913 -8.1846 5.0828 50.4794 13.6875 -3.2869 -0.9972 -0.0000 0.0000 -0.0000 34.5405 5.1221 3.4986 39.5430 7.1057 -10.6761 10.3743 9.5676 15.3573 -10.8918 1.9141 -0.6694 0.0000 0.0000 0.0000 5.5647 2.5436 -11.1590 -1.5583 -9.8918 8.7673 -5.6024 0.4772 -1.8785 0.0000 0.0000 -0.0000
-13.6584 38.7501 29.9869 178.2490 8.0128 172.1060 0.0000 0.0000 0.0000 -0.4128 5.9326 8.5553 -1.1522 -1.7192 23.1198 -2.8081 -0.2467 -18.6195 0.0000 -0.0000 0.0000 0.0000 0.0000 0.0000 -4.3239 -0.1435 9.8312 4.5106 -1.1119 -0.5190 -0.0000 0.0000 -0.0000 12.7226 -16.6614 6.8013 -0.0000 0.0000 -0.0000 -34.1967 -2.7955 2.5340 -41.5815 -13.6792 -23.1216 -7.5171 5.0634 51.3277 13.8414 -2.9249 -0.9682 -0.0000 0.0000 -0.0000 34.5783 5.1202 3.5027 39.1848 6.5993 -12.1434 10.5523 8.6881 16.3187 -10.8020 2.0837 -0.6781 0.0000 0.0000 0.0000 4.7630 2.7601 -10.6084 -1.8348 -7.2263 11.8926 -6.9769 0.6813 -0.1777 0.0000 0.0000 -0.0000
-14.0611 38.6126 29.0180 177.4460 9.6008 171.8170 0.0000 0.0000 0.0000 -2.2719 6.1109 6.8635 -1.0840 -1.2586 29.0598 0.8738 -0.0307 -17.1440 0.0000 -0.0000 0.0000 0.0000 0.0000 0.0000 -5.4369 -0.2486 9.9427 5.0326 -1.3458 -0.3810 -0.0000 0.0000 -0.0000 12.6618 -17.3705 7.7415 -0.0000 0.0000 -0.0000 -34.3929 -2.7371 2.5230 -41.3496 -13.6894 -23.6740 -7.1723 5.0528 51.7731 13.9405 -2.7350 -0.9540 -0.0000 0.0000 -0.0000 34.6256 5.1104 3.5011 38.8232 5.9348 -14.3698 10.5603 7.4165 18.5982 -10.3812 2.5076 -0.6855 0.0000 0.0000 0.0000 3.8521 3.5048 -10.4466 -2.5246 -6.1296 15.0165 -7.5225 0.7118 -0.5935 0.0000 0.0000 -0.0000
-14.4331 38.4917 28.1339 176.8360 11.4570 171.6930 0.0000 0.0000 0.0000 -3.8088 6.0958 3.6082 -1.5394 -1.4135 36.6594 4.7524 0.0069 -12.7266 0.0000 -0.0000 0.0000 0.0000 0.0000 0.0000 -6.2066 -0.2232 10.2341 5.3677 -1.3920 -0.4746 -0.0000 0.0000 -0.0000 12.7272 -18.3004 8.8125 -0.0000 0.0000 -0.0000 -33.9961 -2.6766 2.4737 -41.7019 -13.8781 -23.6053 -7.1120 5.0434 52.0936 13.8317 -2.8105 -0.9547 -0.0000 0.0000 -0.0000 34.5502 5.0915 3.4868 38.8506 4.9453 -16.4065 10.2888 6.4315 20.4443 -9.9278 2.7737 -0.6755 0.0000 0.0000 0.0000 3.0712 4.2977 -10.3876 -3.0367 -5.0657 18.1141 -7.0562 0.5441 -2.8269 0.0000 0.0000 -0.0000
-14.7680 38.4157 27.3201 176.4190 13.5823 171.4400 0.0000 0.0000 0.0000 -4.8078 5.5092 -0.3183 -3.8859 -2.9852 44.5369 5.9749 -0.2322 -7.1459 0.0000 -0.0000 0.0000 0.0000 0.0000 0.0000 -6.6657 -0.1295 10.9722 5.5841 -1.3584 -0.7907 -0.0000 0.0000 -0.0000 12.7553 -19.1894 9.9519 -0.0000 0.0000 -0.0000 -33.3686 -2.6588 2.4276 -42.1882 -13.9702 -22.7416 -7.5842 5.0468 51.8388 13.6633 -3.0583 -0.9701 -0.0000 0.0000 -0.0000 34.3786 5.0733 3.4645 39.1264 3.9849 -17.4920 10.1005 5.8226 20.6539 -9.9962 2.4273 -0.6526 0.0000 0.0000 0.0000 2.5845 4.5360 -9.7201 -2.9808 -3.1081 20.2713 -6.2890 0.3761 -5.0368 0.0000 0.0000 -0.0000
-15.0701 38.4381 26.5184 176.2400 15.6470 171.1230 0.0000 0.0000 0.0000 -5.2291 3.7271 -4.0194 -8.7429 -5.6174 50.9452 3.8965 -0.2812 -3.4683 0.0000 -0.0000 0.0000 0.0000 0.0000 0.0000 -6.9939 -0.2248 11.8247 5.9751 -1.5766 -1.0707 -0.0000 0.0000 -0.0000 12.6182 -19.6121 11.0296 -0.0000 0.0000 -0.0000 -33.1795 -2.6650 2.4183 -42.1018 -13.7998 -21.4099 -8.5090 5.0709 50.7563 13.7314 -3.2511 -0.9966 -0.0000 0.0000 -0.0000 34.3269 5.0729 3.4599 39.1859 3.4557 -17.7205 10.1848 5.1428 20.1069 -10.5926 1.8422 -0.6445 0.0000 0.0000 0.0000 2.3429 4.2932 -8.2733 -2.6003 -0.7993 20.9179 -6.0921 0.2975 -6.4664 0.0000 0.0000 -0.0000
-15.3400 38.5538 25.6850 176.4080 17.5497 171.0300 0.0000 0.0000 0.0000 -4.9899 0.8858 -7.1999 -13.9257 -7.9737 54.6428 0.8409 -0.0778 -2.9633 0.0000 -0.0000 0.0000 0.0000 0.0000 0.0000 -7.0632 -0.5663 12.3198 6.4919 -2.0732 -1.0625 -0.0000 0.0000 -0.0000 12.4671 -19.6706 11.8697 -0.0000 0.0000 -0.0000 -33.3869 -2.6539 2.4268 -41.4825 -13.7982 -20.5029 -9.2021 5.0948 49.7250 14.1006 -3.2753 -1.0271 -0.0000 0.0000 -0.0000 34.4617 5.0897 3.4784 38.9853 3.1875 -17.6673 10.3092 4.3875 20.0983 -10.9870 1.7062 -0.6573 0.0000 0.0000 0.0000 2.2105 4.0528 -6.4543 -2.0388 1.1976 20.5068 -6.4751 0.2609 -7.5214 0.0000 0.0000 -0.0000
-15.5655 38.6893 24.8248 176.8550 19.5948 171.1970 0.0000 0.0000 0.0000 -4.0503 -2.0832 -9.9199 -15.6742 -8.8618 55.0805 -0.5004 0.0157 -4.4527 0.0000 -0.0000 0.0000 0.0000 0.0000 0.0000 -6.7208 -0.9260 12.4361 6.8281 -2.5416 -0.7715 -0.0000 0.0000 -0.0000 12.5099 -19.8034 12.5010 -0.0000 0.0000 -0.0000 -33.4082 -2.6259 2.4171 -40.9391 -14.4560 -20.5041 -9.1873 5.0956 49.6992 14.5693 -3.1661 -1.0495 -0.0000 0.0000 -0.0000 34.5751 5.1034 3.4938 38.9253 2.7790 -17.8009 10.2849 3.9317 20.6068 -10.7397 1.9607 -0.6636 0.0000 0.0000 0.0000 2.1226 3.9886 -4.6739 -1.1398 3.1075 19.9771 -6.8687 0.2182 -8.5601 0.0000 0.0000 -0.0000
-15.7332 38.7829 23.9604 177.3180 22.0507 171.4480 0.0000 0.0000 0.0000 -2.5841 -4.5110 -12.2957 -13.2806 -8.1448 52.7158 -0.0368 -0.0203 -6.0198 0.0000 -0.0000 0.0000 0.0000 0.0000 0.0000 -6.1676 -1.1360 12.4043 6.9147 -2.8014 -0.4025 -0.0000 0.0000 -0.0000 12.6608 -20.0730 13.2165 -0.0000 0.0000 -0.0000 -33.1116 -2.5957 2.3870 -40.6518 -15.5723 -21.0665 -8.7165 5.0826 50.3043 14.8621 -2.9942 -1.0506 -0.0000 0.0000 -0.0000 34.5417 5.1048 3.4915 39.1390 2.2609 -18.0371 10.2012 3.7165 20.8291 -10.3118 2.1068 -0.6483 0.0000 0.0000 0.0000 2.0135 4.0066 -3.0482 0.0040 5.3359 19.7821 -7.0540 0.1629 -9.6340 0.0000 0.0000 -0.0000
-15.8374 38.8352 23.1017 177.6510 24.8155 171.7220 0.0000 0.0000 0.0000 -0.7999 -6.6284 -14.3360 -10.1187 -7.1790 48.5880 0.2820 -0.0370 -6.8642 0.0000 -0.0000 0.0000 0.0000 0.0000 0.0000 -5.7036 -1.2733 12.2971 6.9727 -2.9790 -0.1081 -0.0000 0.0000 -0.0000 12.6539 -20.1542 14.1946 -0.0000 0.0000 -0.0000 -32.9053 -2.5635 2.3618 -40.2507 -16.5587 -21.6417 -8.3055 5.0796 50.5434 14.8227 -2.8564 -1.0311 -0.0000 0.0000 -0.0000 34.5353 5.1142 3.4947 39.2751 1.9334 -18.2040 10.1794 3.2738 20.7790 -10.2409 2.1226 -0.6450 0.0000 0.0000 0.0000 1.8235 4.0720 -1.5239 1.1158 7.7960 19.7287 -7.2415 0.0986 -10.8011 0.0000 0.0000 -0.0000
